<svg width="66" height="38" viewBox="0 0 66 38" fill="none" xmlns="http://www.w3.org/2000/svg">
<path d="M58.4446 21.5649C58.291 21.5649 52.5964 21.5649 52.5964 21.5649C52.6984 20.4679 52.7664 20.3736 52.7686 19.7176C52.7862 13.8661 48.8797 8.75399 43.1654 7.49461C39.9083 6.77716 36.7994 7.30702 34.2269 8.69585C31.0883 4.02475 25.8885 0.874124 19.9284 0.509915C19.1616 0.404601 18.3849 0.342072 17.5895 0.342072C7.87547 0.342072 0 8.46876 0 18.4867C0 23.7074 2.15125 28.4015 5.57393 31.7112C8.6006 35.0692 12.8033 37.2391 17.7793 37.6C17.7793 37.6 58.291 37.8008 58.4446 37.8008C62.5189 37.8008 65.8209 34.0698 65.8209 29.6817C65.8209 25.2959 62.5178 21.5649 58.4446 21.5649Z" fill="white"/>
</svg>
