<svg width="66" height="66" viewBox="0 0 66 66" fill="none" xmlns="http://www.w3.org/2000/svg">
<path d="M46.847 50.2824C57.1467 50.2824 65.4962 42.089 65.4962 31.982C65.4962 21.8749 57.1467 13.6816 46.847 13.6816C36.5472 13.6816 28.1977 21.8749 28.1977 31.982C28.1977 42.089 36.5472 50.2824 46.847 50.2824Z" fill="#FCB641"/>
<path d="M58.4446 49.5649C58.291 49.5649 52.5964 49.5649 52.5964 49.5649C52.6984 48.4679 52.7664 48.3736 52.7686 47.7176C52.7862 41.8661 48.8797 36.754 43.1654 35.4946C39.9083 34.7772 36.7994 35.307 34.2269 36.6958C31.0883 32.0248 25.8885 28.8741 19.9284 28.5099C19.1616 28.4046 18.3849 28.3421 17.5895 28.3421C7.87547 28.3421 0 36.4688 0 46.4867C0 51.7074 2.15125 56.4015 5.57393 59.7112C8.6006 63.0692 12.8033 65.2391 17.7793 65.6C17.7793 65.6 58.291 65.8008 58.4446 65.8008C62.5189 65.8008 65.8209 62.0698 65.8209 57.6817C65.8209 53.2959 62.5178 49.5649 58.4446 49.5649Z" fill="white"/>
</svg>